<?xml version="1.0" encoding="UTF-8" standalone="no" ?>
<!DOCTYPE svg PUBLIC "-//W3C//DTD SVG 1.1//EN" "http://www.w3.org/Graphics/SVG/1.1/DTD/svg11.dtd">
<svg xmlns="http://www.w3.org/2000/svg" xmlns:xlink="http://www.w3.org/1999/xlink" version="1.1" width="1080" height="1080" viewBox="0 0 1080 1080" xml:space="preserve">
<desc>Created with Fabric.js 5.2.4</desc>
<defs>
</defs>
<g transform="matrix(1 0 0 1 540 540)" id="34dbd2c4-24eb-4a2f-82e3-55abb6b49993"  >
<rect style="stroke: none; stroke-width: 1; stroke-dasharray: none; stroke-linecap: butt; stroke-dashoffset: 0; stroke-linejoin: miter; stroke-miterlimit: 4; fill: rgb(255,255,255); fill-rule: nonzero; opacity: 1; visibility: hidden;" vector-effect="non-scaling-stroke"  x="-540" y="-540" rx="0" ry="0" width="1080" height="1080" />
</g>
<g transform="matrix(1 0 0 1 540 540)" id="c3010d10-bc78-428c-8704-c552d8fd88bf"  >
</g>
<g transform="matrix(27.27 0 0 27.27 540 540)"  >
<g style="" vector-effect="non-scaling-stroke"   >
		<g transform="matrix(1 0 0 1 -13.1 -15.15)" id="XMLID_2_"  >
<polygon style="stroke: none; stroke-width: 1; stroke-dasharray: none; stroke-linecap: butt; stroke-dashoffset: 0; stroke-linejoin: miter; stroke-miterlimit: 4; fill: rgb(130,130,130); fill-rule: nonzero; opacity: 1;" vector-effect="non-scaling-stroke"  points="-5.25,0 0.05,-3 5.25,0 -0.15,3 " />
</g>
		<g transform="matrix(1 0 0 1 -6.65 -11.55)" id="XMLID_3_"  >
<polygon style="stroke: none; stroke-width: 1; stroke-dasharray: none; stroke-linecap: butt; stroke-dashoffset: 0; stroke-linejoin: miter; stroke-miterlimit: 4; fill: rgb(130,130,130); fill-rule: nonzero; opacity: 1;" vector-effect="non-scaling-stroke"  points="-5.3,0.1 0,-3 5.3,0.1 -0.1,3 " />
</g>
		<g transform="matrix(1 0 0 1 6.8 -11.6)" id="XMLID_4_"  >
<polygon style="stroke: none; stroke-width: 1; stroke-dasharray: none; stroke-linecap: butt; stroke-dashoffset: 0; stroke-linejoin: miter; stroke-miterlimit: 4; fill: rgb(198,198,198); fill-rule: nonzero; opacity: 1;" vector-effect="non-scaling-stroke"  points="-5.25,0.05 0.05,-3.05 5.25,0.05 -0.15,3.05 " />
</g>
		<g transform="matrix(1 0 0 1 13.4 -15.35)" id="XMLID_5_"  >
<polygon style="stroke: none; stroke-width: 1; stroke-dasharray: none; stroke-linecap: butt; stroke-dashoffset: 0; stroke-linejoin: miter; stroke-miterlimit: 4; fill: rgb(198,198,198); fill-rule: nonzero; opacity: 1;" vector-effect="non-scaling-stroke"  points="-5.25,0.1 0.05,-3 5.25,0.1 -0.15,3 " />
</g>
		<g transform="matrix(1 0 0 1 -16.5 -9.35)" id="XMLID_6_"  >
<polygon style="stroke: none; stroke-width: 1; stroke-dasharray: none; stroke-linecap: butt; stroke-dashoffset: 0; stroke-linejoin: miter; stroke-miterlimit: 4; fill: rgb(0,175,209); fill-rule: nonzero; opacity: 1;" vector-effect="non-scaling-stroke"  points="-2.65,-4.8 -2.65,1.8 2.65,4.8 2.65,-1.7 " />
</g>
		<g transform="matrix(1 0 0 1 -9.85 -5.7)" id="XMLID_7_"  >
<polygon style="stroke: none; stroke-width: 1; stroke-dasharray: none; stroke-linecap: butt; stroke-dashoffset: 0; stroke-linejoin: miter; stroke-miterlimit: 4; fill: rgb(0,175,209); fill-rule: nonzero; opacity: 1;" vector-effect="non-scaling-stroke"  points="-2.7,-4.75 -2.7,1.85 2.7,4.75 2.7,-1.65 " />
</g>
		<g transform="matrix(1 0 0 1 -3.4 -2.2)" id="XMLID_8_"  >
<polygon style="stroke: none; stroke-width: 1; stroke-dasharray: none; stroke-linecap: butt; stroke-dashoffset: 0; stroke-linejoin: miter; stroke-miterlimit: 4; fill: rgb(0,175,209); fill-rule: nonzero; opacity: 1;" vector-effect="non-scaling-stroke"  points="-2.65,-4.75 -2.65,1.85 2.65,4.75 2.65,-1.65 " />
</g>
		<g transform="matrix(1 0 0 1 16.45 -9.25)"  >
<polygon style="stroke: none; stroke-width: 1; stroke-dasharray: none; stroke-linecap: butt; stroke-dashoffset: 0; stroke-linejoin: miter; stroke-miterlimit: 4; fill: rgb(74,225,255); fill-rule: nonzero; opacity: 1;" vector-effect="non-scaling-stroke"  points="2.7,-4.8 2.7,1.8 -2.7,4.8 -2.7,-1.7 " />
</g>
		<g transform="matrix(1 0 0 1 9.8 -5.6)"  >
<polygon style="stroke: none; stroke-width: 1; stroke-dasharray: none; stroke-linecap: butt; stroke-dashoffset: 0; stroke-linejoin: miter; stroke-miterlimit: 4; fill: rgb(74,225,255); fill-rule: nonzero; opacity: 1;" vector-effect="non-scaling-stroke"  points="2.65,-4.75 2.65,1.85 -2.65,4.75 -2.65,-1.65 " />
</g>
		<g transform="matrix(1 0 0 1 3.3 -2.1)"  >
<polygon style="stroke: none; stroke-width: 1; stroke-dasharray: none; stroke-linecap: butt; stroke-dashoffset: 0; stroke-linejoin: miter; stroke-miterlimit: 4; fill: rgb(74,225,255); fill-rule: nonzero; opacity: 1;" vector-effect="non-scaling-stroke"  points="2.65,-4.75 2.65,1.85 -2.65,4.75 -2.65,-1.65 " />
</g>
		<g transform="matrix(1 0 0 1 -16.5 -1.5)" id="XMLID_9_"  >
<polygon style="stroke: none; stroke-width: 1; stroke-dasharray: none; stroke-linecap: butt; stroke-dashoffset: 0; stroke-linejoin: miter; stroke-miterlimit: 4; fill: rgb(0,175,209); fill-rule: nonzero; opacity: 1;" vector-effect="non-scaling-stroke"  points="-2.65,-4.75 -2.65,1.85 2.65,4.75 2.65,-1.65 " />
</g>
		<g transform="matrix(1 0 0 1 -9.85 2.15)" id="XMLID_10_"  >
<polygon style="stroke: none; stroke-width: 1; stroke-dasharray: none; stroke-linecap: butt; stroke-dashoffset: 0; stroke-linejoin: miter; stroke-miterlimit: 4; fill: rgb(0,175,209); fill-rule: nonzero; opacity: 1;" vector-effect="non-scaling-stroke"  points="-2.7,-4.8 -2.7,1.8 2.7,4.8 2.7,-1.6 " />
</g>
		<g transform="matrix(1 0 0 1 -3.4 5.6)" id="XMLID_11_"  >
<polygon style="stroke: none; stroke-width: 1; stroke-dasharray: none; stroke-linecap: butt; stroke-dashoffset: 0; stroke-linejoin: miter; stroke-miterlimit: 4; fill: rgb(0,175,209); fill-rule: nonzero; opacity: 1;" vector-effect="non-scaling-stroke"  points="-2.65,-4.75 -2.65,1.85 2.65,4.75 2.65,-1.65 " />
</g>
		<g transform="matrix(1 0 0 1 16.45 -1.4)"  >
<polygon style="stroke: none; stroke-width: 1; stroke-dasharray: none; stroke-linecap: butt; stroke-dashoffset: 0; stroke-linejoin: miter; stroke-miterlimit: 4; fill: rgb(74,225,255); fill-rule: nonzero; opacity: 1;" vector-effect="non-scaling-stroke"  points="2.7,-4.75 2.7,1.85 -2.7,4.75 -2.7,-1.65 " />
</g>
		<g transform="matrix(1 0 0 1 9.8 2.3)"  >
<polygon style="stroke: none; stroke-width: 1; stroke-dasharray: none; stroke-linecap: butt; stroke-dashoffset: 0; stroke-linejoin: miter; stroke-miterlimit: 4; fill: rgb(74,225,255); fill-rule: nonzero; opacity: 1;" vector-effect="non-scaling-stroke"  points="2.65,-4.75 2.65,1.85 -2.65,4.75 -2.65,-1.65 " />
</g>
		<g transform="matrix(1 0 0 1 3.3 5.7)"  >
<polygon style="stroke: none; stroke-width: 1; stroke-dasharray: none; stroke-linecap: butt; stroke-dashoffset: 0; stroke-linejoin: miter; stroke-miterlimit: 4; fill: rgb(74,225,255); fill-rule: nonzero; opacity: 1;" vector-effect="non-scaling-stroke"  points="2.65,-4.75 2.65,1.85 -2.65,4.75 -2.65,-1.65 " />
</g>
		<g transform="matrix(1 0 0 1 -16.5 6.35)" id="XMLID_12_"  >
<polygon style="stroke: none; stroke-width: 1; stroke-dasharray: none; stroke-linecap: butt; stroke-dashoffset: 0; stroke-linejoin: miter; stroke-miterlimit: 4; fill: rgb(0,175,209); fill-rule: nonzero; opacity: 1;" vector-effect="non-scaling-stroke"  points="-2.65,-4.8 -2.65,1.8 2.65,4.8 2.65,-1.7 " />
</g>
		<g transform="matrix(1 0 0 1 -9.85 10)" id="XMLID_13_"  >
<polygon style="stroke: none; stroke-width: 1; stroke-dasharray: none; stroke-linecap: butt; stroke-dashoffset: 0; stroke-linejoin: miter; stroke-miterlimit: 4; fill: rgb(0,175,209); fill-rule: nonzero; opacity: 1;" vector-effect="non-scaling-stroke"  points="-2.7,-4.75 -2.7,1.85 2.7,4.75 2.7,-1.65 " />
</g>
		<g transform="matrix(1 0 0 1 -3.4 13.5)" id="XMLID_14_"  >
<polygon style="stroke: none; stroke-width: 1; stroke-dasharray: none; stroke-linecap: butt; stroke-dashoffset: 0; stroke-linejoin: miter; stroke-miterlimit: 4; fill: rgb(0,175,209); fill-rule: nonzero; opacity: 1;" vector-effect="non-scaling-stroke"  points="-2.65,-4.75 -2.65,1.85 2.65,4.75 2.65,-1.65 " />
</g>
		<g transform="matrix(1 0 0 1 16.45 6.45)"  >
<polygon style="stroke: none; stroke-width: 1; stroke-dasharray: none; stroke-linecap: butt; stroke-dashoffset: 0; stroke-linejoin: miter; stroke-miterlimit: 4; fill: rgb(74,225,255); fill-rule: nonzero; opacity: 1;" vector-effect="non-scaling-stroke"  points="2.7,-4.8 2.7,1.8 -2.7,4.8 -2.7,-1.6 " />
</g>
		<g transform="matrix(1 0 0 1 9.8 10.1)"  >
<polygon style="stroke: none; stroke-width: 1; stroke-dasharray: none; stroke-linecap: butt; stroke-dashoffset: 0; stroke-linejoin: miter; stroke-miterlimit: 4; fill: rgb(74,225,255); fill-rule: nonzero; opacity: 1;" vector-effect="non-scaling-stroke"  points="2.65,-4.75 2.65,1.85 -2.65,4.75 -2.65,-1.65 " />
</g>
		<g transform="matrix(1 0 0 1 3.3 13.6)"  >
<polygon style="stroke: none; stroke-width: 1; stroke-dasharray: none; stroke-linecap: butt; stroke-dashoffset: 0; stroke-linejoin: miter; stroke-miterlimit: 4; fill: rgb(74,225,255); fill-rule: nonzero; opacity: 1;" vector-effect="non-scaling-stroke"  points="2.65,-4.75 2.65,1.85 -2.65,4.75 -2.65,-1.65 " />
</g>
		<g transform="matrix(1 0 0 1 -2.6 -7.95)" id="XMLID_22_"  >
<polygon style="stroke: none; stroke-width: 1; stroke-dasharray: none; stroke-linecap: butt; stroke-dashoffset: 0; stroke-linejoin: miter; stroke-miterlimit: 4; fill: rgb(130,130,130); fill-rule: nonzero; opacity: 1;" vector-effect="non-scaling-stroke"  points="2.65,-3 -2.65,0.1 2.55,3 2.55,3 2.65,-3 " />
</g>
		<g transform="matrix(1 0 0 1 2.6 -7.95)" id="XMLID_23_"  >
<polygon style="stroke: none; stroke-width: 1; stroke-dasharray: none; stroke-linecap: butt; stroke-dashoffset: 0; stroke-linejoin: miter; stroke-miterlimit: 4; fill: rgb(198,198,198); fill-rule: nonzero; opacity: 1;" vector-effect="non-scaling-stroke"  points="-2.55,-3 -2.65,3 2.65,0.1 " />
</g>
</g>
</g>
</svg>